# xmcd
# 
# Track frame offsets:
#     150
#     21386
#     40956
#     58668
# 
# Disc length: 832
# 
# Revision: 1
# Processed by: cddbd v1.5.2PL0 Copyright (c) Steve Scherf et al.
# Submitted via: BonkEnc v1.0.15
# 
DISCID=31033e04
DTITLE=welle:erdball - novus ordo seclorum
DYEAR=0
DGENRE=
TTITLE0=Ich rette Dich!
TTITLE1=Das Radio, das Ohr der Welt
TTITLE2=Ich habe die Zukunft gesehen
TTITLE3=Fernsehen und Lüge
EXTD=
EXTT0=
EXTT1=
EXTT2=
EXTT3=
PLAYORDER=
